/* XPM */
static char * close_prelight_xpm[] = {
"24 24 33 1",
" 	c None",
".	c #373737",
"+	c #2F2F2F",
"@	c #3C3D42",
"#	c #696E7F",
"$	c #7A7D88",
"%	c #808082",
"&	c #7B7E87",
"*	c #585C6C",
"=	c #7F8185",
"-	c #78809E",
";	c #7383B7",
">	c #6F81C3",
",	c #585D6C",
"'	c #7E8088",
")	c #7180B9",
"!	c #6E81C6",
"~	c #313032",
"{	c #3B3C41",
"]	c #6B7DBD",
"^	c #6A6E7E",
"/	c #303032",
"(	c #474F69",
"_	c #49516D",
":	c #7381B7",
"<	c #4E577A",
"[	c #4C5574",
"}	c #4D5677",
"|	c #464D68",
"1	c #444A62",
"2	c #34363C",
"3	c #505A7E",
"4	c #565B6A",
"........................",
"++++++++++++++++++++++++",
"++++++++++++++++++++++++",
"++++++++++++++++++++++++",
"++++++++++++++++++++++++",
"++++++++@#$%%&#@++++++++",
"+++++++*=-;>>;-=,+++++++",
"++++++*')!!!!!!)=,++++++",
"++++~{=)!]!!!!]!)=@+++++",
"+++++^-!!/(!!_/!!-^+++++",
"+++++$:!!<+((+[!!;&+++++",
"++++~%>!!!}++[!!!!%+++++",
"+++++=>!!!|~+1>!>>'~++++",
"+++++$:!!(+<</|!>:=~++++",
"+++++^-!!23!!32!>-^+++++",
"+++++{=)!!!!!!!!)'2+++++",
"++++++4')!!!!!!)'*++++++",
"+++++++,=-:>>;-'4+++++++",
"++++++++@^$%%&^2++++++++",
"++++++++++~+++++++++++++",
"++++++++++++++++++++++++",
"++++++++++++++++++++++++",
"++++++++++++++++++++++++",
"++++++++++++++++++++++++"};
