<svg xmlns="http://www.w3.org/2000/svg" width="34" height="34" viewBox="0 0 34 34"><defs><style>.cls-1 { fill: #202020; fill-rule: evenodd; }</style></defs><path class="cls-1" d="M17 34a17 17 0 1 1 17-17 17 17 0 0 1-17 17zm0-30.812A13.813 13.813 0 1 0 30.81 17 13.81 13.81 0 0 0 17 3.188zm5.97 16.472l-4.79 5.312a1.577 1.577 0 0 1-2.36 0l-4.79-5.312h.01a1.55 1.55 0 0 1-.41-1.062 1.586 1.586 0 0 1 2.77-1.063l2.01 2.225V10.1a1.59 1.59 0 1 1 3.18 0v9.66l2.01-2.225a1.586 1.586 0 0 1 2.77 1.063 1.55 1.55 0 0 1-.41 1.062z"/></svg>