<svg xmlns="http://www.w3.org/2000/svg" height="16" viewBox="0 0 16 16" width="16" id="svg2" version="1.1">
    <path d="M 8.6428356,10.217818 6.7997469,8.3965003 6.8215157,8.3747315 C 8.0841039,6.9670182 8.9838796,5.3488733 9.5135861,3.6363971 l 2.1260819,0 0,-1.4548792 -5.0793776,0 0,-1.45125161 -1.4512511,0 0,1.45125161 -5.07937825,0 0,1.4439947 8.10523665,0 C 7.6451005,5.0259699 6.8795656,6.3538645 5.8346649,7.5148655 5.1598331,6.763843 4.6011014,5.9475142 4.1584699,5.08402 l -1.4512509,0 C 3.2369256,6.2667894 3.9625511,7.3842528 4.8695829,8.3928722 L 1.1797771,12.039135 2.2065374,13.065896 5.8346649,9.4377729 8.0913602,11.694463 8.6428356,10.217818 Z m 4.0852704,-3.6825471 -1.45125,0 -3.2653146,8.7075011 1.4512509,0 0.8163277,-2.176876 3.446722,0 0.816329,2.176876 1.451251,0 -3.265316,-8.7075011 z m -1.904766,5.0793731 1.179141,-3.1455812 1.179141,3.1455812 -2.358282,0 z" id="path6" />
</svg>
