/* XPM */
static char * close_pressed_xpm[] = {
"24 24 30 1",
" 	c None",
".	c #EEEEEE",
"+	c #D9D9D9",
"@	c #CED2D4",
"#	c #96ABBC",
"$	c #6F91AB",
"%	c #5B85A3",
"&	c #AEBCC6",
"*	c #5D85A3",
"=	c #5680A0",
"-	c #5882A0",
";	c #5C84A2",
">	c #5F87A5",
",	c #6088A6",
"'	c #FBFBFB",
")	c #BDCDD9",
"!	c #B9CAD7",
"~	c #FDFDFD",
"{	c #ABC0CF",
"]	c #BECEDA",
"^	c #B0C3D2",
"/	c #7092AC",
"(	c #AFC2D1",
"_	c #FCFCFC",
":	c #C6D3DE",
"<	c #EFF3F5",
"[	c #A6BCCC",
"}	c #98ACBC",
"|	c #CFD2D5",
"1	c #B0BDC6",
"........................",
"++++++++++++++++++++++++",
"++++++++++++++++++++++++",
"++++++++++++++++++++++++",
"++++++++++++++++++++++++",
"++++++++@#$%%$#@++++++++",
"+++++++&*======*&+++++++",
"++++++&-========;&++++++",
"+++++@>==,====>==;@+++++",
"+++++#===')--!~===#+++++",
"+++++$==={~])~^===/+++++",
"+++++%====(~~^====;+++++",
"+++++%===*)_~:%===%+++++",
"+++++$===!~(^_!===/+++++",
"+++++#===<[==[<===}+++++",
"+++++@>==========>|+++++",
"++++++&=========-&++++++",
"+++++++&>-=====,1+++++++",
"++++++++@#$%%$#@++++++++",
"++++++++++++++++++++++++",
"++++++++++++++++++++++++",
"++++++++++++++++++++++++",
"++++++++++++++++++++++++",
"++++++++++++++++++++++++"};
